<?xml version="1.0" encoding="UTF-8"?>
<svg id="Capa_2" data-name="Capa 2" xmlns="http://www.w3.org/2000/svg" viewBox="0 0 34.47 29.97">
  <defs>
    <style>
      .cls-1 {
        fill: #ff776f;
        stroke-width: 0px;
      }
    </style>
  </defs>
  <g id="Capa_1-2" data-name="Capa 1">
    <g>
      <path class="cls-1" d="M34.47,28.68c-.16.28-.28.59-.49.83-.27.32-.66.46-1.08.46-2.2,0-4.4.01-6.6,0-.93,0-1.56-.69-1.58-1.66-.01-.55,0-1.1,0-1.65,0-4.44,0-8.88,0-13.32,0-.92.42-1.54,1.18-1.75.21-.06.44-.06.67-.06,1.93,0,3.86.03,5.79-.02,1.01-.02,1.75.26,2.12,1.25v15.92Z"/>
      <path class="cls-1" d="M13.06,22.86c0-1.78,0-3.55,0-5.33,0-1.14.63-1.78,1.77-1.78,2.06,0,4.13,0,6.19,0,1.15,0,1.79.65,1.79,1.8,0,3.54,0,7.08,0,10.62,0,1.16-.64,1.79-1.79,1.79-2.06,0-4.13,0-6.19,0-1.13,0-1.76-.64-1.76-1.78,0-1.78,0-3.55,0-5.33Z"/>
      <path class="cls-1" d="M2.51,15.73c-.44,0-.88.03-1.31,0C.49,15.66-.02,15.05,0,14.34c.02-.71.57-1.28,1.27-1.33,1.12-.06,2.24-.09,3.36-.18,2.34-.18,4.64-.64,6.91-1.23,5.47-1.43,10.57-3.69,15.29-6.79.07-.04.13-.08.2-.13.27-.21.28-.33.04-.57-.39-.39-.79-.77-1.18-1.15-.07-.07-.15-.14-.21-.21-.39-.43-.28-.83.28-.98.59-.16,1.2-.3,1.79-.44,1.74-.42,3.48-.85,5.22-1.27.73-.18,1.05.11.89.85-.52,2.36-1.05,4.71-1.58,7.06-.15.68-.56.79-1.05.31-.5-.49-.98-.99-1.48-1.48-.32-.32-.43-.33-.79-.09-3.87,2.65-8.04,4.71-12.46,6.28-3.37,1.2-6.82,2.07-10.37,2.48-1.2.14-2.41.23-3.62.34,0-.02,0-.05,0-.07Z"/>
      <path class="cls-1" d="M11.11,24.79c0,1.15,0,2.29,0,3.44,0,1.1-.64,1.74-1.73,1.74-2.09,0-4.17,0-6.26,0-1.09,0-1.74-.63-1.75-1.73,0-2.3,0-4.61,0-6.91,0-1.11.67-1.75,1.77-1.75,2.06,0,4.13,0,6.19,0,1.13,0,1.77.65,1.77,1.78,0,1.15,0,2.29,0,3.44Z"/>
    </g>
  </g>
</svg>