<?xml version="1.0" encoding="UTF-8"?>
<svg id="Capa_2" data-name="Capa 2" xmlns="http://www.w3.org/2000/svg" viewBox="0 0 34.65 30.31">
  <defs>
    <style>
      .cls-1 {
        fill: #ff776f;
        stroke-width: 0px;
      }
    </style>
  </defs>
  <g id="Capa_1-2" data-name="Capa 1">
    <g>
      <path class="cls-1" d="M34.65,29.2c-.43,1.04-.82,1.26-1.8,1.02-3.01-.74-6.06-1.11-9.13-.85-1.2.1-2.39.34-3.58.52.15-.15.32-.34.51-.51,1.48-1.35,3.17-2.18,5.01-2.56,1.2-.25,2.43-.37,3.65-.46,1.3-.1,2.28-.73,2.88-2.07.27-.59.32-1.23.32-1.88,0-5.65,0-11.29,0-16.94,0-.17,0-.33,0-.49,1.2-.17,1.72-.06,2.14,1.04v23.19Z"/>
      <path class="cls-1" d="M16.35,28.8c-.27-.28-.49-.53-.73-.77-2.02-2-4.4-3.1-7.01-3.55-1.06-.18-2.13-.24-3.19-.33-.86-.07-1.35-.61-1.35-1.61,0-6.99,0-13.98,0-20.97,0-1.05.54-1.61,1.45-1.58,1.74.06,3.46.3,5.12.96,2.25.89,4.13,2.35,5.43,4.68.17.3.29.69.29,1.04.02,7.31.01,14.63.01,21.94,0,.04,0,.07-.02.19Z"/>
      <path class="cls-1" d="M18.28,28.82c0-.25,0-.4,0-.56,0-6.96.02-13.93-.02-20.89,0-1.04.3-1.83.85-2.6,1.71-2.41,3.97-3.74,6.57-4.32,1.17-.26,2.37-.34,3.55-.44.82-.07,1.35.58,1.35,1.58,0,4.15,0,8.3,0,12.44,0,2.78,0,5.56,0,8.33,0,1.27-.44,1.77-1.55,1.8-2.14.05-4.24.42-6.25,1.31-1.58.7-3.01,1.7-4.22,3.06-.07.08-.15.15-.28.28Z"/>
      <path class="cls-1" d="M14.54,29.92c-2.33-.56-4.66-.71-7.02-.58-1.95.11-3.88.43-5.79.9C.65,30.52,0,29.92,0,28.65c0-7.35,0-14.71,0-22.06,0-1.13.47-1.66,1.45-1.67.21,0,.43,0,.7,0,0,.19,0,.35,0,.51,0,5.67,0,11.35,0,17.02,0,1.28.36,2.35,1.25,3.15.59.53,1.28.74,2.02.75,1.41.03,2.81.2,4.18.61,1.73.52,3.33,1.34,4.7,2.7.08.08.16.17.24.26Z"/>
    </g>
  </g>
</svg>