<?xml version="1.0" encoding="UTF-8"?>
<svg id="Capa_2" data-name="Capa 2" xmlns="http://www.w3.org/2000/svg" xmlns:xlink="http://www.w3.org/1999/xlink" viewBox="0 0 120 119">
  <defs>
    <style>
      .cls-1 {
        fill-rule: evenodd;
      }

      .cls-1, .cls-2, .cls-3 {
        stroke-width: 0px;
      }

      .cls-1, .cls-3 {
        fill: #fff;
      }

      .cls-2 {
        fill: url(#Degradado_sin_nombre_67);
        filter: url(#drop-shadow-1);
      }
    </style>
    <linearGradient id="Degradado_sin_nombre_67" data-name="Degradado sin nombre 67" x1="17.23" y1="49.89" x2="101.82" y2="49.89" gradientUnits="userSpaceOnUse">
      <stop offset="0" stop-color="#69dfff"/>
      <stop offset="1" stop-color="#b56fff"/>
    </linearGradient>
    <filter id="drop-shadow-1" filterUnits="userSpaceOnUse">
      <feOffset dx="0" dy="9.27"/>
      <feGaussianBlur result="blur" stdDeviation="5.56"/>
      <feFlood flood-color="#1e85ff" flood-opacity=".4"/>
      <feComposite in2="blur" operator="in"/>
      <feComposite in="SourceGraphic"/>
    </filter>
  </defs>
  <g id="Capa_1-2" data-name="Capa 1">
    <g>
      <circle class="cls-2" cx="59.53" cy="49.89" r="42.29"/>
      <g id="Icon">
        <circle class="cls-3" cx="59.58" cy="34.48" r="4.98"/>
        <circle class="cls-3" cx="72.71" cy="58.01" r="4.98"/>
        <circle class="cls-3" cx="46.46" cy="58.01" r="4.98"/>
        <path class="cls-1" d="M66.82,43.53v1.81c0,.75-.61,1.36-1.36,1.36h-11.77c-.75,0-1.36-.61-1.36-1.36v-1.81c0-1.8.72-3.53,1.99-4.8,1.27-1.27,3-1.99,4.8-1.99h.91c1.8,0,3.53.72,4.8,1.99,1.27,1.27,1.99,3,1.99,4.8ZM64.11,43.53c0-1.08-.43-2.12-1.19-2.88s-1.8-1.19-2.88-1.19h-.91c-1.08,0-2.12.43-2.88,1.19s-1.19,1.8-1.19,2.88v.45h9.05v-.45Z"/>
        <path class="cls-1" d="M79.95,67.07v1.81c0,.75-.61,1.36-1.36,1.36h-11.77c-.75,0-1.36-.61-1.36-1.36v-1.81c0-1.8.72-3.53,1.99-4.8,1.27-1.27,3-1.99,4.8-1.99h.91c1.8,0,3.53.72,4.8,1.99,1.27,1.27,1.99,3,1.99,4.8ZM77.23,67.07c0-1.08-.43-2.12-1.19-2.88s-1.8-1.19-2.88-1.19h-.91c-1.08,0-2.12.43-2.88,1.19s-1.19,1.8-1.19,2.88v.45h9.05v-.45Z"/>
        <path class="cls-1" d="M53.7,67.07v1.81c0,.75-.61,1.36-1.36,1.36h-11.77c-.75,0-1.36-.61-1.36-1.36v-1.81c0-1.8.72-3.53,1.99-4.8,1.27-1.27,3-1.99,4.8-1.99h.91c1.8,0,3.53.72,4.8,1.99,1.27,1.27,1.99,3,1.99,4.8ZM50.98,67.07c0-1.08-.43-2.12-1.19-2.88s-1.8-1.19-2.88-1.19h-.91c-1.08,0-2.12.43-2.88,1.19s-1.19,1.8-1.19,2.88v.45h9.05v-.45Z"/>
        <path class="cls-1" d="M47.36,48.96c0,.75-.61,1.36-1.36,1.36s-1.36-.61-1.36-1.36c0-3.36,1.11-6.46,2.99-8.96.45-.6,1.3-.72,1.9-.27.6.45.72,1.3.27,1.9-1.54,2.04-2.45,4.58-2.45,7.33ZM63.66,60.49c.71-.25,1.48.12,1.73.83.25.71-.12,1.48-.83,1.73-1.56.55-3.23.85-4.98.85s-3.42-.3-4.98-.85c-.71-.25-1.08-1.03-.83-1.73.25-.71,1.03-1.08,1.73-.83,1.27.45,2.64.7,4.07.7s2.8-.24,4.07-.7ZM69.36,41.63c-.45-.6-.33-1.45.27-1.9.6-.45,1.45-.33,1.9.27,1.88,2.5,2.99,5.6,2.99,8.96,0,.75-.61,1.36-1.36,1.36s-1.36-.61-1.36-1.36c0-2.75-.91-5.29-2.44-7.33Z"/>
      </g>
    </g>
  </g>
</svg>