<?xml version="1.0" encoding="UTF-8"?>
<svg id="Capa_2" data-name="Capa 2" xmlns="http://www.w3.org/2000/svg" xmlns:xlink="http://www.w3.org/1999/xlink" viewBox="0 0 189.96 41.04">
  <defs>
    <style>
      .cls-1 {
        fill: #000;
      }

      .cls-1, .cls-2, .cls-3 {
        stroke-width: 0px;
      }

      .cls-2 {
        fill: url(#Degradado_sin_nombre_20);
      }

      .cls-3 {
        fill: #fff;
      }
    </style>
    <linearGradient id="Degradado_sin_nombre_20" data-name="Degradado sin nombre 20" x1="0" y1="20.52" x2="40.98" y2="20.52" gradientUnits="userSpaceOnUse">
      <stop offset="0" stop-color="#b56fff"/>
      <stop offset=".1" stop-color="#c871d9"/>
      <stop offset=".2" stop-color="#d972b8"/>
      <stop offset=".32" stop-color="#e6749d"/>
      <stop offset=".44" stop-color="#f17589"/>
      <stop offset=".58" stop-color="#f9767a"/>
      <stop offset=".74" stop-color="#fd7671"/>
      <stop offset="1" stop-color="#ff776f"/>
    </linearGradient>
  </defs>
  <g id="Capa_1-2" data-name="Capa 1">
    <g>
      <g>
        <path class="cls-2" d="M20.52,41.04C9.21,41.04,0,31.84,0,20.52S9.21,0,20.52,0c3.38,0,5.83.81,7.49,2.48,3.18,3.19,3.16,9.19,3.13,16.14v1.9s0,1.9,0,1.9c.02,6.95.05,12.95-3.13,16.14-1.67,1.67-4.12,2.48-7.49,2.48ZM37.82,23.68c-1.74,0-3.16-1.42-3.16-3.16s1.42-3.16,3.16-3.16,3.16,1.42,3.16,3.16-1.42,3.16-3.16,3.16Z"/>
        <g>
          <path class="cls-3" d="M10.88,12.13c-.35,0-.65-.12-.89-.36-.25-.24-.37-.54-.37-.91s.12-.67.37-.91c.25-.24.54-.36.89-.36s.66.12.91.36c.25.24.38.55.38.91s-.12.65-.38.89c-.25.25-.55.37-.91.37ZM11.83,24.02c0,1.12.43,1.68,1.3,1.68.07,0,.15,0,.22,0,.39-.02.72.3.72.7v.36c0,.35-.25.64-.59.69,0,0,0,0,0,0-.25.04-.51.05-.79.05-.39,0-.75-.06-1.1-.19-.34-.13-.64-.32-.89-.58s-.45-.59-.6-.98c-.15-.39-.22-.85-.22-1.38v-8.16c0-.54.44-.98.98-.98h0c.54,0,.98.44.98.98v7.81Z"/>
          <path class="cls-3" d="M23.94,27.42h0c-.54,0-.98-.44-.98-.98v-.93h-.05c-.85,1.46-2.1,2.19-3.75,2.19-1.21,0-2.17-.32-2.85-.96-.69-.64-1.03-1.5-1.03-2.56,0-2.28,1.34-3.6,4.03-3.98l3.66-.51c0-2.07-.84-3.11-2.51-3.11-1,0-1.93.23-2.79.69-.54.29-1.18-.12-1.18-.73h0c0-.29.15-.56.4-.7,1.1-.6,2.35-.91,3.74-.91,2.87,0,4.3,1.52,4.3,4.55v6.95c0,.54-.44.98-.98.98ZM22.97,21.26l-2.94.4c-.91.13-1.59.35-2.05.67-.46.32-.69.89-.69,1.71,0,.6.21,1.08.64,1.46.42.38.99.57,1.7.57.97,0,1.77-.34,2.4-1.02s.95-1.54.95-2.58v-1.21Z"/>
        </g>
      </g>
      <g>
        <path class="cls-1" d="M50.57,27.52c-.39,0-.77-.04-1.15-.13-.37-.09-.68-.19-.91-.32v5.56h-3.43v-16.59h2.57l.33,1.19c.45-.45.98-.81,1.58-1.06.6-.26,1.26-.39,1.97-.39s1.37.13,1.96.4c.59.27,1.09.64,1.5,1.13.4.49.72,1.09.95,1.79.23.7.34,1.48.34,2.34,0,.97-.15,1.83-.44,2.58-.3.76-.7,1.39-1.21,1.9-.51.51-1.12.91-1.81,1.18-.69.27-1.44.41-2.23.41ZM50.55,18.36c-.47,0-.88.11-1.24.33-.36.22-.62.44-.79.65v5.14c.39.34.93.51,1.61.51.31,0,.62-.06.93-.19.31-.12.59-.32.83-.6.24-.27.44-.63.6-1.06.16-.44.23-.97.23-1.61,0-.89-.19-1.64-.56-2.25-.37-.62-.91-.92-1.61-.92Z"/>
        <path class="cls-1" d="M58.61,17.03c.64-.37,1.36-.67,2.16-.9.8-.23,1.62-.34,2.46-.34,1.39,0,2.5.33,3.34,1,.84.67,1.26,1.74,1.26,3.2v7.26h-2.64l-.3-1.12h-.09c-.31.41-.74.74-1.3.99-.55.26-1.2.39-1.95.39-.64,0-1.2-.09-1.67-.28-.48-.19-.87-.44-1.18-.75-.31-.31-.55-.68-.71-1.11-.16-.43-.25-.88-.25-1.37,0-.65.14-1.21.43-1.68.29-.47.68-.85,1.17-1.14.49-.3,1.07-.51,1.73-.65.66-.14,1.37-.21,2.11-.21h1.17v-.61c0-.42-.15-.74-.44-.97s-.72-.34-1.26-.34c-.47,0-.93.07-1.38.21-.45.14-.95.37-1.5.68l-1.17-2.27ZM64.38,22.43l-.77.02c-.44.02-.8.06-1.1.14-.3.08-.53.17-.71.29-.18.12-.31.26-.39.42-.08.16-.12.33-.12.5,0,.48.14.81.43.99.29.18.62.27.99.27s.71-.11,1.02-.33c.3-.22.52-.46.64-.72v-1.59Z"/>
        <path class="cls-1" d="M70.36,27.26v-11.21h2.71l.35,1.96c.14-.28.31-.56.51-.83.2-.27.44-.51.72-.71.28-.2.6-.37.97-.49.37-.12.77-.19,1.23-.19.34,0,.66.04.95.13.29.09.52.18.69.29l-.56,2.69c-.17-.09-.39-.18-.65-.26-.27-.08-.59-.12-.98-.12-.72,0-1.31.23-1.79.7-.48.47-.71,1.28-.71,2.43v5.61h-3.43Z"/>
        <path class="cls-1" d="M79.47,17.03c.64-.37,1.36-.67,2.16-.9.8-.23,1.62-.34,2.46-.34,1.39,0,2.5.33,3.34,1,.84.67,1.26,1.74,1.26,3.2v7.26h-2.64l-.3-1.12h-.09c-.31.41-.74.74-1.3.99-.55.26-1.2.39-1.95.39-.64,0-1.2-.09-1.67-.28-.48-.19-.87-.44-1.18-.75-.31-.31-.55-.68-.71-1.11-.16-.43-.25-.88-.25-1.37,0-.65.14-1.21.43-1.68.29-.47.68-.85,1.17-1.14.49-.3,1.07-.51,1.73-.65.66-.14,1.37-.21,2.11-.21h1.17v-.61c0-.42-.15-.74-.44-.97s-.72-.34-1.26-.34c-.47,0-.93.07-1.38.21-.45.14-.95.37-1.5.68l-1.17-2.27ZM85.24,22.43l-.77.02c-.44.02-.8.06-1.1.14-.3.08-.53.17-.71.29-.18.12-.31.26-.39.42-.08.16-.12.33-.12.5,0,.48.14.81.43.99.29.18.62.27.99.27s.71-.11,1.02-.33c.3-.22.52-.46.64-.72v-1.59Z"/>
        <path class="cls-1" d="M96.85,17.03c.64-.37,1.36-.67,2.16-.9.8-.23,1.62-.34,2.46-.34,1.39,0,2.5.33,3.34,1,.84.67,1.26,1.74,1.26,3.2v7.26h-2.64l-.3-1.12h-.09c-.31.41-.74.74-1.3.99-.55.26-1.2.39-1.95.39-.64,0-1.2-.09-1.67-.28-.48-.19-.87-.44-1.18-.75-.31-.31-.55-.68-.71-1.11-.16-.43-.25-.88-.25-1.37,0-.65.14-1.21.43-1.68.29-.47.68-.85,1.17-1.14.49-.3,1.07-.51,1.73-.65.66-.14,1.37-.21,2.11-.21h1.17v-.61c0-.42-.15-.74-.44-.97s-.72-.34-1.26-.34c-.47,0-.93.07-1.38.21-.45.14-.95.37-1.5.68l-1.17-2.27ZM102.62,22.43l-.77.02c-.44.02-.8.06-1.1.14-.3.08-.53.17-.71.29-.18.12-.31.26-.39.42-.08.16-.12.33-.12.5,0,.48.14.81.43.99.29.18.62.27.99.27s.71-.11,1.02-.33c.3-.22.52-.46.64-.72v-1.59Z"/>
        <path class="cls-1" d="M114.09,27.52c-.39,0-.77-.04-1.15-.13-.37-.09-.68-.19-.91-.32v5.56h-3.43v-16.59h2.57l.33,1.19c.45-.45.98-.81,1.58-1.06.6-.26,1.26-.39,1.97-.39s1.37.13,1.96.4c.59.27,1.09.64,1.5,1.13.4.49.72,1.09.95,1.79.23.7.34,1.48.34,2.34,0,.97-.15,1.83-.44,2.58-.3.76-.7,1.39-1.21,1.9-.51.51-1.12.91-1.81,1.18-.69.27-1.44.41-2.23.41ZM114.07,18.36c-.47,0-.88.11-1.24.33-.36.22-.62.44-.79.65v5.14c.39.34.93.51,1.61.51.31,0,.62-.06.93-.19.31-.12.59-.32.83-.6.24-.27.44-.63.6-1.06.16-.44.23-.97.23-1.61,0-.89-.19-1.64-.56-2.25-.37-.62-.91-.92-1.61-.92Z"/>
        <path class="cls-1" d="M121.92,27.26v-11.21h2.71l.35,1.96c.14-.28.31-.56.51-.83.2-.27.44-.51.72-.71.28-.2.6-.37.97-.49.37-.12.77-.19,1.23-.19.34,0,.66.04.95.13.29.09.52.18.69.29l-.56,2.69c-.17-.09-.39-.18-.65-.26-.27-.08-.59-.12-.98-.12-.72,0-1.31.23-1.79.7-.48.47-.71,1.28-.71,2.43v5.61h-3.43Z"/>
        <path class="cls-1" d="M140.7,22.66h-7.24v.09c0,.78.3,1.35.91,1.71.61.36,1.37.54,2.29.54.64,0,1.2-.06,1.68-.19.48-.12.89-.27,1.21-.44l.63,2.38c-.42.2-.95.38-1.6.54-.65.16-1.44.23-2.37.23-.84,0-1.64-.11-2.39-.34s-1.42-.57-1.99-1.04c-.57-.47-1.02-1.06-1.35-1.78-.34-.72-.5-1.57-.5-2.57,0-.89.14-1.7.41-2.44.27-.74.66-1.37,1.16-1.9.5-.53,1.09-.94,1.79-1.23.69-.29,1.46-.43,2.3-.43,1.54,0,2.77.47,3.69,1.4.92.93,1.38,2.27,1.38,4v1.47ZM137.17,20.3c0-.26-.03-.52-.09-.77-.06-.25-.16-.47-.29-.67-.13-.19-.3-.35-.51-.47-.21-.12-.46-.17-.76-.17-.54,0-1,.19-1.35.57-.36.38-.57.9-.63,1.55l3.64-.05Z"/>
        <path class="cls-1" d="M146.28,27.26h-3.46v-11.21h2.69l.4,1.4c.5-.51,1.06-.92,1.68-1.21.62-.29,1.3-.44,2.03-.44,1.26,0,2.23.34,2.9,1.03.67.69,1,1.69,1,3.01v7.43h-3.46v-7.08c0-.54-.13-.98-.39-1.3-.26-.32-.63-.48-1.13-.48-.37,0-.77.11-1.18.33s-.77.51-1.09.86v7.66Z"/>
        <path class="cls-1" d="M163.38,10.56h3.46v16.7h-2.38l-.35-1.21h-.12c-.22.34-.6.67-1.13.99-.54.32-1.24.48-2.11.48-.73,0-1.41-.14-2.03-.41-.62-.27-1.16-.66-1.61-1.17-.45-.51-.81-1.12-1.06-1.84-.26-.72-.39-1.54-.39-2.44s.12-1.69.35-2.42c.23-.72.57-1.34,1.02-1.85.44-.51.99-.9,1.65-1.18.65-.28,1.39-.42,2.22-.42.51,0,1,.07,1.46.22.46.15.81.33,1.04.55v-6ZM163.38,19.09c-.14-.19-.36-.37-.65-.54-.3-.17-.62-.26-.98-.26s-.69.06-1,.18c-.31.12-.59.31-.83.57-.24.26-.43.6-.57,1.02-.14.41-.21.92-.21,1.53,0,1.17.23,2.03.69,2.58.46.55,1.05.83,1.79.83.45,0,.83-.12,1.13-.35s.52-.48.64-.75v-4.81Z"/>
        <path class="cls-1" d="M179.71,22.66h-7.24v.09c0,.78.3,1.35.91,1.71.61.36,1.37.54,2.29.54.64,0,1.2-.06,1.68-.19.48-.12.89-.27,1.21-.44l.63,2.38c-.42.2-.95.38-1.6.54-.65.16-1.44.23-2.37.23-.84,0-1.64-.11-2.39-.34s-1.42-.57-1.99-1.04c-.57-.47-1.02-1.06-1.35-1.78-.34-.72-.5-1.57-.5-2.57,0-.89.14-1.7.41-2.44s.66-1.37,1.16-1.9c.5-.53,1.09-.94,1.79-1.23.69-.29,1.46-.43,2.3-.43,1.54,0,2.77.47,3.69,1.4.92.93,1.38,2.27,1.38,4v1.47ZM176.18,20.3c0-.26-.03-.52-.09-.77-.06-.25-.16-.47-.29-.67-.13-.19-.3-.35-.51-.47-.21-.12-.46-.17-.76-.17-.54,0-1,.19-1.35.57-.36.38-.57.9-.63,1.55l3.64-.05Z"/>
        <path class="cls-1" d="M181.83,27.26v-11.21h2.71l.35,1.96c.14-.28.31-.56.51-.83.2-.27.44-.51.72-.71.28-.2.6-.37.97-.49.37-.12.77-.19,1.23-.19.34,0,.66.04.95.13.29.09.52.18.69.29l-.56,2.69c-.17-.09-.39-.18-.65-.26-.27-.08-.59-.12-.98-.12-.72,0-1.31.23-1.79.7-.48.47-.71,1.28-.71,2.43v5.61h-3.43Z"/>
      </g>
    </g>
  </g>
</svg>